<svg width="512" height="512" viewBox="0 0 512 512" fill="none" xmlns="http://www.w3.org/2000/svg">
<path d="M124.223 173.223C102.53 170.8 85.6094 176.436 78.4289 180.256C63.2573 199.418 54.2079 223.593 54.2079 249.867C54.2079 285.572 70.9183 317.397 96.9927 338.04C81.5664 318.794 72.3464 294.414 72.3464 267.894C72.3464 228.194 93.0071 193.291 124.223 173.223Z" fill="url(#paint0_linear)"/>
<path d="M27 256.627C27 231.73 38.2857 209.452 56.0502 194.572C50.4682 208.931 47.406 224.537 47.406 240.854C47.406 278.278 63.5119 311.963 89.2098 335.439C53.5017 326.78 27 294.78 27 256.627Z" fill="url(#paint1_linear)"/>
<path d="M163.04 229.587C163.04 233.321 159.995 236.347 156.238 236.347C152.48 236.347 149.436 233.321 149.436 229.587C149.436 225.853 152.48 222.827 156.238 222.827C159.995 222.827 163.04 225.853 163.04 229.587Z" fill="url(#paint2_linear)"/>
<path d="M142.634 238.6C145.138 238.6 147.168 236.582 147.168 234.094C147.168 233.486 147.047 232.907 146.827 232.379C146.579 231.779 146.203 231.244 145.734 230.806C144.923 230.049 143.834 229.587 142.634 229.587C140.129 229.587 138.099 231.605 138.099 234.094C138.099 234.226 138.106 234.358 138.117 234.487C138.13 234.639 138.15 234.791 138.179 234.939C138.236 235.238 138.322 235.526 138.435 235.801C138.557 236.098 138.712 236.38 138.892 236.642C139.157 237.027 139.483 237.368 139.853 237.654C140.309 238.006 140.834 238.272 141.405 238.431C141.797 238.541 142.209 238.6 142.634 238.6Z" fill="url(#paint3_linear)"/>
<path d="M169.842 238.6C172.346 238.6 174.376 236.582 174.376 234.094C174.376 233.825 174.352 233.563 174.308 233.306C174.259 233.029 174.184 232.76 174.086 232.503C173.969 232.197 173.82 231.906 173.643 231.636C173.526 231.455 173.395 231.283 173.251 231.123C173.048 230.892 172.822 230.683 172.576 230.498C171.817 229.926 170.869 229.587 169.842 229.587C167.337 229.587 165.307 231.605 165.307 234.094C165.307 236.582 167.337 238.6 169.842 238.6Z" fill="url(#paint4_linear)"/>
<path d="M76.8812 274.654C76.8812 228.26 113.057 190.261 158.904 187C165.105 190.609 178.65 201.634 186.663 219.044C179.881 217.105 172.716 216.067 165.307 216.067C122.733 216.067 88.2179 250.369 88.2179 292.68C88.2179 308.341 92.9471 322.904 101.062 335.038C86.0723 319.293 76.8812 298.041 76.8812 274.654Z" fill="url(#paint5_linear)"/>
<path d="M158.503 292.533C158.85 312.232 145.005 328.897 126.331 332.89C128.906 333.348 131.565 333.566 134.279 333.52C156.816 333.128 174.766 314.655 174.372 292.258C173.987 270.193 155.941 252.554 133.857 252.406C138.36 250.765 143.227 249.867 148.304 249.867C171.469 249.867 190.25 268.532 190.25 291.554C190.25 294.916 189.849 298.186 189.092 301.317C191.295 296.252 192.517 290.665 192.517 284.794C192.517 261.772 173.736 243.107 150.571 243.107C139.585 243.107 129.585 247.303 122.108 254.171L115.426 255.5L123.361 256.627C123.423 256.689 123.49 256.755 123.556 256.818L124.185 257.443C124.192 257.439 124.198 257.432 124.205 257.428C128.764 261.58 138.737 268.138 148.709 266.873C154.666 273.784 158.33 282.723 158.503 292.533Z" fill="url(#paint6_linear)"/>
<path d="M295.683 262.828C294.777 262.828 293.888 262.756 293.017 262.612C289.498 262.071 286.506 260.737 284.037 258.61C281.57 256.518 279.793 253.905 278.706 250.768C275.294 252.174 271.613 252.877 267.658 252.877C261.129 252.877 255.779 251.038 251.606 247.361C247.434 243.684 245.348 238.961 245.348 233.192C245.348 229.334 246.291 225.909 248.177 222.917C250.1 219.924 252.784 217.617 256.231 215.995C259.678 214.336 263.613 213.507 268.04 213.507C270.941 213.507 273.753 213.795 276.474 214.372C279.195 214.913 281.39 215.598 283.059 216.427L283.168 225.729H282.731C281.862 222.448 280.175 219.979 277.672 218.32C275.205 216.626 272.23 215.778 268.746 215.778C264.465 215.778 260.966 217.419 258.245 220.7C255.559 223.944 254.218 228.145 254.218 233.3C254.218 238.42 255.542 242.584 258.191 245.793C260.838 249.001 264.248 250.606 268.42 250.606C270.67 250.606 272.61 250.119 274.242 249.146C275.911 248.172 277.037 246.874 277.617 245.252V237.032C277.617 236.238 277.38 235.626 276.909 235.193C276.437 234.76 275.766 234.544 274.896 234.544H274.025V234.003H289.316V234.544H288.501C287.592 234.544 286.903 234.76 286.432 235.193C285.96 235.626 285.743 236.22 285.78 236.978V245.576C285.815 247.956 286.269 250.173 287.14 252.228C289.061 256.627 292.254 259.367 296.717 260.448C297.915 260.737 299.147 260.881 300.416 260.881C301.722 260.881 303.048 260.737 304.389 260.448L304.498 260.989C301.379 262.215 298.441 262.828 295.683 262.828ZM293.579 251.579C294.522 251.579 295.32 251.255 295.972 250.606C296.663 249.921 297.026 249.109 297.061 248.172V218.05C296.952 216.788 296.354 215.85 295.266 215.237C294.722 214.949 294.16 214.805 293.579 214.805H292.871V214.264H313.712C314.838 214.264 316.07 214.156 317.413 213.94C318.756 213.723 319.699 213.507 320.242 213.291V222.755H319.699V222.106C319.699 220.483 319.208 219.185 318.23 218.212C317.287 217.202 315.998 216.661 314.366 216.589H305.223V232.327H312.406C313.749 232.291 314.855 231.84 315.726 230.975C316.596 230.073 317.032 228.974 317.032 227.676V227.189H317.576V239.682H317.032V239.249C317.032 237.446 316.307 236.112 314.855 235.247C314.129 234.851 313.332 234.634 312.46 234.598H305.223V249.795H312.352C315.001 249.795 317.213 249.037 318.991 247.523C320.805 246.009 322.146 243.864 323.017 241.088H323.563L321.059 252.12H292.871V251.579H293.579ZM327.694 251.579C328.638 251.579 329.437 251.255 330.089 250.606C330.778 249.921 331.141 249.109 331.178 248.172V218.05C331.069 216.788 330.47 215.85 329.383 215.237C328.838 214.949 328.275 214.805 327.694 214.805H326.988V214.264H347.829C348.953 214.264 350.187 214.156 351.53 213.94C352.871 213.723 353.814 213.507 354.359 213.291V222.755H353.814V222.106C353.814 220.483 353.325 219.185 352.345 218.212C351.402 217.202 350.115 216.661 348.481 216.589H339.341V232.327H346.523C347.866 232.291 348.972 231.84 349.842 230.975C350.713 230.073 351.148 228.974 351.148 227.676V227.189H351.693V239.682H351.148V239.249C351.148 237.446 350.424 236.112 348.972 235.247C348.246 234.851 347.449 234.634 346.577 234.598H339.341V249.795H346.469C349.118 249.795 351.33 249.037 353.108 247.523C354.92 246.009 356.263 243.864 357.135 241.088H357.678L355.174 252.12H326.988V251.579H327.694ZM381.286 216.481V248.226C381.321 249.164 381.667 249.957 382.319 250.606C383.01 251.255 383.825 251.579 384.768 251.579H385.422L385.476 252.12H368.934V251.579H369.64C370.549 251.579 371.327 251.255 371.981 250.606C372.67 249.957 373.05 249.182 373.124 248.28V216.481H365.776C364.109 216.517 362.784 217.04 361.806 218.05C360.826 219.059 360.335 220.375 360.335 221.997V222.646H359.791V213.236C360.3 213.453 361.206 213.669 362.512 213.885C363.855 214.102 365.087 214.21 366.213 214.21H388.143C389.92 214.174 391.37 214.03 392.496 213.777C393.619 213.525 394.31 213.345 394.562 213.236V222.646H394.019V221.997C394.019 220.375 393.53 219.059 392.55 218.05C391.57 217.04 390.246 216.517 388.577 216.481H381.286ZM431.924 251.579H432.413V252.12H415.056V251.579H415.545C416.343 251.579 416.923 251.345 417.286 250.876C417.686 250.371 417.886 249.903 417.886 249.47C417.886 249.037 417.794 248.605 417.612 248.172L414.947 241.52H402.213L399.383 248.172C399.203 248.641 399.111 249.092 399.111 249.524C399.111 249.921 399.292 250.371 399.655 250.876C400.055 251.345 400.672 251.579 401.506 251.579H401.941V252.12H390.297V251.579H390.786C391.62 251.579 392.455 251.327 393.289 250.822C394.124 250.317 394.813 249.56 395.356 248.551L407.926 220.267C409.632 216.698 410.538 214.336 410.647 213.182H411.138L427.3 248.443C427.843 249.488 428.532 250.281 429.367 250.822C430.201 251.327 431.053 251.579 431.924 251.579ZM403.138 239.249H414.022L408.743 225.945L403.138 239.249ZM427.158 221.024C428.864 220.375 429.716 219.239 429.716 217.617C429.716 216.644 429.299 215.688 428.464 214.751C427.63 213.777 427.212 212.714 427.212 211.56C427.212 210.406 427.558 209.487 428.247 208.802C428.936 208.081 429.77 207.72 430.75 207.72C432.745 207.72 434.123 208.586 434.886 210.316C435.392 211.398 435.647 212.299 435.647 213.02C435.647 215.075 435.212 216.77 434.341 218.104C432.78 220.519 430.75 221.727 428.247 221.727C427.921 221.727 427.612 221.691 427.321 221.619L427.158 221.024ZM439.07 247.091C439.07 244.495 439.633 242.277 440.758 240.439H441.247C441.211 240.727 441.193 241.016 441.193 241.304C441.193 243.792 442.082 245.973 443.86 247.848C445.674 249.686 448.141 250.606 451.259 250.606C453.691 250.606 455.577 250.029 456.918 248.875C458.298 247.722 458.987 246.261 458.987 244.495C458.987 242.368 457.536 240.511 454.634 238.924L445.166 232.705C443.279 231.624 441.919 230.326 441.084 228.812C440.287 227.261 439.887 225.693 439.887 224.107C439.887 220.717 440.956 218.104 443.097 216.265C445.274 214.426 448.05 213.507 451.422 213.507C453.419 213.507 455.886 213.687 458.824 214.048H462.251L461.545 221.997H461C461 220.123 460.293 218.627 458.878 217.509C457.499 216.355 455.649 215.778 453.328 215.778C450.499 215.778 448.449 216.644 447.178 218.374C446.526 219.203 446.2 220.141 446.2 221.186C446.2 222.917 447.469 224.521 450.008 225.999L460.402 232.705C463.666 234.58 465.3 237.338 465.3 240.98C465.3 244.837 463.975 247.794 461.328 249.849C458.715 251.868 455.232 252.877 450.879 252.877C448.412 252.877 446.126 252.589 444.023 252.012C441.956 251.399 440.43 250.588 439.452 249.578C439.198 248.893 439.07 248.064 439.07 247.091ZM237.597 276.684C235.105 276.684 233.137 277.511 231.691 279.164C230.255 280.807 229.537 283.061 229.537 285.927C229.537 288.874 230.228 291.154 231.613 292.766C233.009 294.368 234.992 295.169 237.566 295.169C239.145 295.169 240.948 294.887 242.974 294.322V296.617C241.404 297.202 239.465 297.495 237.162 297.495C233.824 297.495 231.247 296.488 229.428 294.476C227.62 292.463 226.715 289.603 226.715 285.896C226.715 283.575 227.15 281.542 228.017 279.796C228.895 278.05 230.156 276.705 231.8 275.76C233.451 274.815 235.394 274.343 237.628 274.343C240.003 274.343 242.08 274.774 243.857 275.637L242.741 277.886C241.026 277.085 239.31 276.684 237.597 276.684ZM275.521 285.896C275.521 289.5 274.603 292.335 272.766 294.399C270.935 296.463 268.389 297.495 265.121 297.495C261.783 297.495 259.206 296.483 257.388 294.46C255.581 292.427 254.676 289.562 254.676 285.865C254.676 282.199 255.585 279.359 257.403 277.347C259.222 275.324 261.807 274.312 265.152 274.312C268.409 274.312 270.951 275.339 272.779 277.393C274.607 279.447 275.521 282.281 275.521 285.896ZM257.465 285.896C257.465 288.946 258.117 291.261 259.42 292.843C260.731 294.414 262.631 295.2 265.121 295.2C267.634 295.2 269.528 294.414 270.809 292.843C272.092 291.272 272.733 288.956 272.733 285.896C272.733 282.867 272.092 280.571 270.809 279.01C269.54 277.439 267.654 276.654 265.152 276.654C262.643 276.654 260.731 277.444 259.42 279.026C258.117 280.597 257.465 282.887 257.465 285.896ZM288.528 297.187V274.667H291.161V294.815H301.158V297.187H288.528ZM312.953 297.187V274.667H315.589V294.815H325.585V297.187H312.953ZM350.012 297.187H337.38V274.667H350.012V276.993H340.016V284.248H349.407V286.558H340.016V294.845H350.012V297.187ZM372.687 276.684C370.199 276.684 368.227 277.511 366.782 279.164C365.346 280.807 364.628 283.061 364.628 285.927C364.628 288.874 365.318 291.154 366.704 292.766C368.099 294.368 370.083 295.169 372.656 295.169C374.236 295.169 376.041 294.887 378.067 294.322V296.617C376.495 297.202 374.558 297.495 372.252 297.495C368.914 297.495 366.337 296.488 364.519 294.476C362.712 292.463 361.808 289.603 361.808 285.896C361.808 283.575 362.24 281.542 363.108 279.796C363.989 278.05 365.249 276.705 366.89 275.76C368.544 274.815 370.486 274.343 372.72 274.343C375.096 274.343 377.172 274.774 378.95 275.637L377.832 277.886C376.118 277.085 374.403 276.684 372.687 276.684ZM397.922 297.187H395.286V276.993H388.11V274.667H405.096V276.993H397.922V297.187ZM416.459 297.187V274.667H419.093V297.187H416.459ZM452.926 285.896C452.926 289.5 452.009 292.335 450.169 294.399C448.339 296.463 445.793 297.495 442.528 297.495C439.19 297.495 436.613 296.483 434.793 294.46C432.986 292.427 432.08 289.562 432.08 285.865C432.08 282.199 432.99 279.359 434.808 277.347C436.627 275.324 439.212 274.312 442.557 274.312C445.814 274.312 448.356 275.339 450.186 277.393C452.012 279.447 452.926 282.281 452.926 285.896ZM434.872 285.896C434.872 288.946 435.522 291.261 436.825 292.843C438.137 294.414 440.036 295.2 442.528 295.2C445.038 295.2 446.934 294.414 448.214 292.843C449.495 291.272 450.138 288.956 450.138 285.896C450.138 282.867 449.495 280.571 448.214 279.01C446.945 277.439 445.059 276.654 442.557 276.654C440.048 276.654 438.137 277.444 436.825 279.026C435.522 280.597 434.872 282.887 434.872 285.896ZM483.63 297.187H480.624L468.24 278.286H468.118C468.283 280.505 468.365 282.538 468.365 284.386V297.187H465.931V274.667H468.906L481.26 293.49H481.385C481.363 293.212 481.319 292.324 481.245 290.825C481.173 289.315 481.146 288.237 481.169 287.59V274.667H483.63V297.187Z" fill="#D4AF37"/>
<defs>
<linearGradient id="paint0_linear" x1="109.759" y1="172.637" x2="109.759" y2="338.04" gradientUnits="userSpaceOnUse">
<stop stop-color="#996515"/>
<stop offset="0.515625" stop-color="#FFCC00"/>
<stop offset="1" stop-color="#B8860B"/>
</linearGradient>
<linearGradient id="paint1_linear" x1="109.759" y1="172.637" x2="109.759" y2="338.04" gradientUnits="userSpaceOnUse">
<stop stop-color="#996515"/>
<stop offset="0.515625" stop-color="#FFCC00"/>
<stop offset="1" stop-color="#B8860B"/>
</linearGradient>
<linearGradient id="paint2_linear" x1="109.758" y1="172.637" x2="109.758" y2="338.04" gradientUnits="userSpaceOnUse">
<stop stop-color="#996515"/>
<stop offset="0.515625" stop-color="#FFCC00"/>
<stop offset="1" stop-color="#B8860B"/>
</linearGradient>
<linearGradient id="paint3_linear" x1="109.759" y1="172.637" x2="109.759" y2="338.039" gradientUnits="userSpaceOnUse">
<stop stop-color="#996515"/>
<stop offset="0.515625" stop-color="#FFCC00"/>
<stop offset="1" stop-color="#B8860B"/>
</linearGradient>
<linearGradient id="paint4_linear" x1="109.759" y1="172.637" x2="109.759" y2="338.039" gradientUnits="userSpaceOnUse">
<stop stop-color="#996515"/>
<stop offset="0.515625" stop-color="#FFCC00"/>
<stop offset="1" stop-color="#B8860B"/>
</linearGradient>
<linearGradient id="paint5_linear" x1="109.758" y1="172.637" x2="109.758" y2="338.04" gradientUnits="userSpaceOnUse">
<stop stop-color="#996515"/>
<stop offset="0.515625" stop-color="#FFCC00"/>
<stop offset="1" stop-color="#B8860B"/>
</linearGradient>
<linearGradient id="paint6_linear" x1="109.759" y1="172.637" x2="109.759" y2="338.04" gradientUnits="userSpaceOnUse">
<stop stop-color="#996515"/>
<stop offset="0.515625" stop-color="#FFCC00"/>
<stop offset="1" stop-color="#B8860B"/>
</linearGradient>
</defs>
</svg>
